{
	"asset":{
		"generator":"Khronos glTF Blender I/O v4.1.63",
		"version":"2.0"
	},
	"scene":0,
	"scenes":[
		{
			"name":"Scene",
			"nodes":[
				0
			]
		}
	],
	"nodes":[
		{
			"mesh":0,
			"name":"Kraken",
			"rotation":[
				-0.21081502735614777,
				0.0027019926346838474,
				0.005147772375494242,
				0.9775087237358093
			],
			"scale":[
				18.01041030883789,
				18.010408401489258,
				18.01041030883789
			]
		}
	],
	"materials":[
		{
			"doubleSided":true,
			"name":"Eye",
			"normalTexture":{
				"index":0
			},
			"pbrMetallicRoughness":{
				"baseColorTexture":{
					"index":1
				},
				"metallicRoughnessTexture":{
					"index":2
				}
			}
		},
		{
			"doubleSided":true,
			"name":"Kraken",
			"normalTexture":{
				"index":3
			},
			"pbrMetallicRoughness":{
				"baseColorTexture":{
					"index":4
				},
				"metallicRoughnessTexture":{
					"index":5
				}
			}
		}
	],
	"meshes":[
		{
			"name":"Sphere.001",
			"primitives":[
				{
					"attributes":{
						"POSITION":0,
						"NORMAL":1,
						"TEXCOORD_0":2
					},
					"indices":3,
					"material":0
				},
				{
					"attributes":{
						"POSITION":4,
						"NORMAL":5,
						"TEXCOORD_0":6
					},
					"indices":7,
					"material":1
				}
			]
		}
	],
	"textures":[
		{
			"sampler":0,
			"source":0
		},
		{
			"sampler":0,
			"source":1
		},
		{
			"sampler":0,
			"source":2
		},
		{
			"sampler":0,
			"source":3
		},
		{
			"sampler":0,
			"source":4
		},
		{
			"sampler":0,
			"source":5
		}
	],
	"images":[
		{
			"mimeType":"image/png",
			"name":"Eye_Normal",
			"uri":"Eye_Normal.png"
		},
		{
			"mimeType":"image/png",
			"name":"Eye_BaseColor",
			"uri":"Eye_BaseColor.png"
		},
		{
			"mimeType":"image/png",
			"name":"Eye_Roughness",
			"uri":"Eye_Roughness.png"
		},
		{
			"mimeType":"image/png",
			"name":"Kraken_Normal",
			"uri":"Kraken_Normal.png"
		},
		{
			"mimeType":"image/png",
			"name":"Kraken_BaseColor",
			"uri":"Kraken_BaseColor.png"
		},
		{
			"mimeType":"image/png",
			"name":"Kraken_Metallic-Kraken_Roughness",
			"uri":"Kraken_Metallic-Kraken_Roughness.png"
		}
	],
	"accessors":[
		{
			"bufferView":0,
			"componentType":5126,
			"count":165,
			"max":[
				0.980785071849823,
				0.945304811000824,
				-0.1083863154053688
			],
			"min":[
				-0.8314684629440308,
				-0.9295260310173035,
				-1
			],
			"type":"VEC3"
		},
		{
			"bufferView":1,
			"componentType":5126,
			"count":165,
			"type":"VEC3"
		},
		{
			"bufferView":2,
			"componentType":5126,
			"count":165,
			"type":"VEC2"
		},
		{
			"bufferView":3,
			"componentType":5123,
			"count":840,
			"type":"SCALAR"
		},
		{
			"bufferView":4,
			"componentType":5126,
			"count":26373,
			"max":[
				3.0249438285827637,
				2.502082109451294,
				1.2387186288833618
			],
			"min":[
				-2.0300445556640625,
				-1.7907596826553345,
				-2.55798077583313
			],
			"type":"VEC3"
		},
		{
			"bufferView":5,
			"componentType":5126,
			"count":26373,
			"type":"VEC3"
		},
		{
			"bufferView":6,
			"componentType":5126,
			"count":26373,
			"type":"VEC2"
		},
		{
			"bufferView":7,
			"componentType":5123,
			"count":149862,
			"type":"SCALAR"
		}
	],
	"bufferViews":[
		{
			"buffer":0,
			"byteLength":1980,
			"byteOffset":0,
			"target":34962
		},
		{
			"buffer":0,
			"byteLength":1980,
			"byteOffset":1980,
			"target":34962
		},
		{
			"buffer":0,
			"byteLength":1320,
			"byteOffset":3960,
			"target":34962
		},
		{
			"buffer":0,
			"byteLength":1680,
			"byteOffset":5280,
			"target":34963
		},
		{
			"buffer":0,
			"byteLength":316476,
			"byteOffset":6960,
			"target":34962
		},
		{
			"buffer":0,
			"byteLength":316476,
			"byteOffset":323436,
			"target":34962
		},
		{
			"buffer":0,
			"byteLength":210984,
			"byteOffset":639912,
			"target":34962
		},
		{
			"buffer":0,
			"byteLength":299724,
			"byteOffset":850896,
			"target":34963
		}
	],
	"samplers":[
		{
			"magFilter":9729,
			"minFilter":9987
		}
	],
	"buffers":[
		{
			"byteLength":1150620,
			"uri":"Kraken.bin"
		}
	]
}
